<svg xmlns="http://www.w3.org/2000/svg" fill="none" viewBox="25.568 65.54014598540147 276.454 306.91970802919707" style="max-height: 500px" width="276.454" height="306.91970802919707">
<path fill="#6130F0" d="M146.5 72.1036C157.329 65.8515 170.671 65.8515 181.5 72.1036L282.466 130.396C293.295 136.649 299.966 148.203 299.966 160.707V277.293C299.966 289.797 293.295 301.351 282.466 307.604L181.5 365.896C170.671 372.149 157.329 372.149 146.5 365.896L45.534 307.604C34.705 301.351 28.034 289.797 28.034 277.293V160.707C28.034 148.203 34.705 136.649 45.534 130.396L146.5 72.1036Z"/>
<path fill="white" d="M84.998 153.052H123.376L107.276 187.872H70.3958L84.998 153.052Z"/>
<path fill="white" d="M184.78 189.932L202.752 232.241L219.975 189.932H256.481L202.003 307.499L163.626 230.556L184.78 189.932Z"/>
<path fill="white" d="M204.812 153.052H241.504L257.604 187.872H219.227L204.812 153.052Z"/>
<path fill="#E7E7E7" d="M70.3958 189.932H107.276L124.312 232.054L142.846 189.932L163.438 230.556L125.435 307.499L70.3958 189.932Z"/>
<path fill="#E7E7E7" d="M145.279 188.996L163.438 157.17L182.721 187.872L163.438 224.565L145.279 188.996Z"/>
<path fill="black" d="M515.575 210.425L480.925 303H438.75L394.475 159.325H441.725L465.875 255.225L500 162.125H531.325L565.1 255.225L589.425 159.325H636.675L592.575 303H550.4L515.575 210.425ZM770.586 303V277.975C769.536 280.542 766.852 284.158 762.536 288.825C758.219 293.492 752.386 297.75 745.036 301.6C737.802 305.333 729.286 307.2 719.486 307.2C705.719 307.2 693.527 303.933 682.911 297.4C672.294 290.75 663.952 281.708 657.886 270.275C651.936 258.725 648.961 245.717 648.961 231.25C648.961 216.783 651.936 203.833 657.886 192.4C663.952 180.85 672.294 171.75 682.911 165.1C693.527 158.45 705.719 155.125 719.486 155.125C729.052 155.125 737.336 156.758 744.336 160.025C751.452 163.175 757.169 166.908 761.486 171.225C765.919 175.425 768.777 179.217 770.061 182.6V159.325H814.161V303H770.586ZM692.536 231.25C692.536 239.3 694.344 246.417 697.961 252.6C701.577 258.667 706.361 263.392 712.311 266.775C718.261 270.158 724.736 271.85 731.736 271.85C739.086 271.85 745.619 270.158 751.336 266.775C757.052 263.275 761.544 258.492 764.811 252.425C768.194 246.242 769.886 239.183 769.886 231.25C769.886 223.317 768.194 216.317 764.811 210.25C761.544 204.067 757.052 199.225 751.336 195.725C745.619 192.225 739.086 190.475 731.736 190.475C724.736 190.475 718.261 192.225 712.311 195.725C706.361 199.108 701.577 203.892 697.961 210.075C694.344 216.142 692.536 223.2 692.536 231.25ZM849.951 303V62.2H894.401V182.6C895.334 179.217 898.076 175.367 902.626 171.05C907.176 166.733 913.184 163 920.651 159.85C928.234 156.7 936.809 155.125 946.376 155.125C960.142 155.125 972.159 158.45 982.426 165.1C992.809 171.75 1000.86 180.85 1006.58 192.4C1012.41 203.833 1015.33 216.783 1015.33 231.25C1015.33 245.717 1012.41 258.725 1006.58 270.275C1000.86 281.708 992.809 290.75 982.426 297.4C972.159 303.933 960.142 307.2 946.376 307.2C937.859 307.2 929.926 305.625 922.576 302.475C915.342 299.325 909.217 295.475 904.201 290.925C899.301 286.375 895.859 282.058 893.876 277.975V303H849.951ZM971.576 231.25C971.576 223.2 969.884 216.142 966.501 210.075C963.117 203.892 958.567 199.108 952.851 195.725C947.134 192.225 940.776 190.475 933.776 190.475C926.426 190.475 919.776 192.225 913.826 195.725C907.876 199.225 903.151 204.067 899.651 210.25C896.151 216.317 894.401 223.317 894.401 231.25C894.401 239.183 896.151 246.242 899.651 252.425C903.151 258.492 907.876 263.275 913.826 266.775C919.776 270.158 926.426 271.85 933.776 271.85C940.776 271.85 947.134 270.158 952.851 266.775C958.567 263.392 963.117 258.667 966.501 252.6C969.884 246.417 971.576 239.3 971.576 231.25ZM1111.9 307.2C1096.62 307.2 1082.97 303.933 1070.95 297.4C1059.05 290.867 1049.72 281.942 1042.95 270.625C1036.18 259.192 1032.8 246.183 1032.8 231.6C1032.8 217.017 1036.18 204.008 1042.95 192.575C1049.72 181.025 1059.05 171.925 1070.95 165.275C1082.97 158.508 1096.62 155.125 1111.9 155.125C1127.3 155.125 1140.89 158.508 1152.67 165.275C1164.46 171.925 1173.67 181.025 1180.32 192.575C1186.97 204.008 1190.3 217.017 1190.3 231.6C1190.3 246.183 1186.97 259.192 1180.32 270.625C1173.67 281.942 1164.46 290.867 1152.67 297.4C1140.89 303.933 1127.3 307.2 1111.9 307.2ZM1111.9 270.275C1119.25 270.275 1125.61 268.642 1130.97 265.375C1136.46 261.992 1140.66 257.383 1143.57 251.55C1146.61 245.6 1148.12 238.892 1148.12 231.425C1148.12 223.958 1146.61 217.25 1143.57 211.3C1140.66 205.35 1136.46 200.683 1130.97 197.3C1125.61 193.8 1119.25 192.05 1111.9 192.05C1104.55 192.05 1098.13 193.8 1092.65 197.3C1087.28 200.683 1083.08 205.35 1080.05 211.3C1077.02 217.25 1075.5 223.958 1075.5 231.425C1075.5 238.892 1077.02 245.6 1080.05 251.55C1083.08 257.383 1087.28 261.992 1092.65 265.375C1098.13 268.642 1104.55 270.275 1111.9 270.275ZM1287.68 263.975L1330.21 159.325H1374.13L1275.96 375.8H1231.33L1264.41 303L1204.73 159.325H1249.18L1287.68 263.975ZM1388.53 159.325H1524.33L1447.16 271.325H1519.43V303H1377.68L1454.86 190.825H1388.53V159.325Z"/>
</svg>